mtllib deku.mtl
o Default
v 0.5 -0.25 1
v 1.5 1.5 1
v 2.5 -0.25 1.5
v 3.5 1.5 1
v 4.5 -0.25 1
v 3.5 -2 1
v 1.5 -2 1
v 2.5 3.25 0
v -0.5 1.5 0
v 2.5 -3.75 0
v -0.5 -2 0
v 5.5 1.5 0
v 5.5 -2 0
v 0.75 2.75 -1
v 0.75 -3.25 -1
v 4.25 2.75 -1
v 4.25 -3.25 -1
v 6 -0.25 -1
v -1 -0.25 -1
v 2.5 3.25 0
v 2.5 3.25 0
v 4.25 2.75 -1
v 0.75 2.75 -1
v 3.75 -1 2.25
v 3 -0.25 2.25
v 3 -0.5 1.25
v 3.5 -1 1
v 2 -0.25 2.25
v 2 -0.5 1.25
v 3 -2.75 2.25
v 3.75 -2 2.25
v 3.5 -2 0.75
v 3 -2.5 0.5
v 1.25 -1 2.25
v 1.5 -1 1
v 1.25 -2 2.25
v 1.5 -2 0.75
v 2 -2.75 2.25
v 2 -2.5 0.5
v 2 -1 2.25
v 3 -1 2.25
v 2 -2 2.25
v 3 -2 2.25
v 2.5 -3.75 0
v 2.5 -3.75 0
v 0.75 -3.25 -1
v 4.25 -3.25 -1
v 1.75 3.25 0
v 3.25 3.25 0
v 3.25 7.25 -0.75
v 1.75 7.25 -0.75
v 2.5 3.75 0
v 2.5 2.75 0
v 7 3.5 -0.75
v 7 4.75 -0.75
v 2.5 3.75 0
v 2.5 2.75 0
v -2 3.5 -0.75
v -2 4.75 -0.75
v 2.5 -0.25 0.5
v 0.75 2.75 -1
v 4.25 -3.25 -1
v 0.75 -3.25 -1
v 6 -0.25 -1
v -1 -0.25 -1
vt 0.265625 0.5078125
vt 0.421875 0.5078125
vt 0.3359375 0.640625
vt 0.4140625 0.5078125
vt 0.5390625 0.6484375
vt 0.34375 0.6484375
vt 0.4609375 0.5078125
vt 0.6171875 0.5078125
vt 0.5390625 0.640625
vt 0.546875 0.375
vt 0.6171875 0.5078125
vt 0.46875 0.5078125
vt 0.34375 0.375
vt 0.421875 0.5078125
vt 0.265625 0.5078125
vt 0.3359375 0.671875
vt 0.65625 0.640625
vt 0.3984375 0.734375
vt 0.5390625 0.640625
vt 0.6953125 0.640625
vt 0.609375 0.5078125
vt 0.40625 0.3671875
vt 0.46875 0.3671875
vt 0.46875 0.4296875
vt 0.1640625 0.375
vt 0.3515625 0.375
vt 0.265625 0.5078125
vt 0.3984375 0.6328125
vt 0.4609375 0.6484375
vt 0.4609375 0.7109375
vt 0.4609375 0.6953125
vt 0.4609375 0.6328125
vt 0.3984375 0.6328125
vt 0.40625 0.4453125
vt 0.4453125 0.390625
vt 0.515625 0.390625
vt 0.46875 0.4296875
vt 0.46875 0.3671875
vt 0.40625 0.3671875
vt 0.203125 0.3828125
vt 0.234375 0.5078125
vt 0.140625 0.609375
vt 0.1328125 0.6171875
vt 0.234375 0.515625
vt 0.203125 0.390625
vt 0.3359375 0.671875
vt 0.65625 0.640625
vt 0.3984375 0.734375
vt 0.46875 0.4296875
vt 0.46875 0.3671875
vt 0.40625 0.3671875
vt 0.3984375 0.734375
vt 0.65625 0.640625
vt 0.3359375 0.671875
vt 0.40625 0.3671875
vt 0.46875 0.3671875
vt 0.46875 0.4296875
vt 0.40625 0.46875
vt 0.515625 0.640625
vt 0.4140625 0.6953125
vt 0.3984375 0.6953125
vt 0.5078125 0.5859375
vt 0.40625 0.46875
vt 0.15625 0.5234375
vt 0.234375 0.53125
vt 0.21875 0.5859375
vt 0.21875 0.5703125
vt 0.21875 0.5078125
vt 0.15625 0.5078125
vt 0.3359375 0.734375
vt 0.3984375 0.734375
vt 0.3359375 0.671875
vt 0.3984375 0.734375
vt 0.65625 0.640625
vt 0.3359375 0.671875
vt 0.6171875 0.5078125
vt 0.6953125 0.640625
vt 0.5390625 0.640625
vt 0.34375 0.375
vt 0.53125 0.375
vt 0.46875 0.5078125
vt 0.3203125 0.25
vt 0.25 0.359375
vt 0.25 0.25
vt 0.3203125 0.25
vt 0.3203125 0.359375
vt 0.25 0.359375
vt 0.3203125 0.25
vt 0.25 0.359375
vt 0.25 0.25
vt 0.3203125 0.25
vt 0.3203125 0.359375
vt 0.25 0.359375
vt 0.3203125 0.25
vt 0.25 0.359375
vt 0.25 0.25
vt 0.3203125 0.25
vt 0.3203125 0.359375
vt 0.25 0.359375
vt 0.3203125 0.2734375
vt 0.21875 0.3828125
vt 0.25 0.2734375
vt 0.3203125 0.2734375
vt 0.3203125 0.375
vt 0.21875 0.3828125
vt 0.3203125 0.25
vt 0.25 0.359375
vt 0.25 0.25
vt 0.3203125 0.25
vt 0.3203125 0.359375
vt 0.25 0.359375
vt 0.3203125 0.25
vt 0.25 0.359375
vt 0.25 0.25
vt 0.3203125 0.25
vt 0.3203125 0.359375
vt 0.25 0.359375
vt 0.3203125 0.25
vt 0.25 0.359375
vt 0.25 0.25
vt 0.3203125 0.25
vt 0.3203125 0.359375
vt 0.25 0.359375
vt 0.3203125 0.25
vt 0.25 0.359375
vt 0.25 0.25
vt 0.3203125 0.25
vt 0.3203125 0.359375
vt 0.25 0.359375
vt 0.3359375 0.09375
vt 0.5390625 0.15625
vt 0.3359375 0.15625
vt 0.3359375 0.09375
vt 0.5390625 0.09375
vt 0.5390625 0.15625
vt 0.3359375 0.1484375
vt 0.390625 0.1484375
vt 0.390625 0.2109375
vt 0.390625 0.2109375
vt 0.390625 0.1484375
vt 0.3359375 0.1484375
vt 0.3984375 0.03125
vt 0.46875 0.09375
vt 0.3984375 0.09375
vt 0.3984375 0.03125
vt 0.4765625 0.03125
vt 0.46875 0.09375
vt 0.3984375 0.15625
vt 0.4765625 0.21875
vt 0.3984375 0.21875
vt 0.3984375 0.15625
vt 0.4765625 0.15625
vt 0.4765625 0.21875
vt 0.5390625 0.375
vt 0.7265625 0.375
vt 0.6328125 0.5078125
vt 0.484375 0.0390625
vt 0.5390625 0.1015625
vt 0.484375 0.1015625
vt 0.484375 0.1015625
vt 0.5390625 0.1015625
vt 0.484375 0.0390625
vt 0.40625 0.4296875
vt 0.46875 0.4296875
vt 0.40625 0.3671875
vt 0.46875 0.4296875
vt 0.46875 0.3671875
vt 0.40625 0.3671875
vt 0.390625 0.6171875
vt 0.3828125 0.4609375
vt 0.5 0.4609375
vt 0.5 0.4609375
vt 0.3828125 0.4609375
vt 0.390625 0.6171875
vt 0.3125 0.9375
vt 0.71875 0.9375
vt 0.3125 0.8125
vt 0.71875 0.9375
vt 0.71875 0.8125
vt 0.3125 0.8125
vt 0.3125 0.9375
vt 0.71875 0.9375
vt 0.3125 0.8125
vt 0.71875 0.9375
vt 0.71875 0.8125
vt 0.3125 0.8125
vt 0.3125 0.8125
vt 0.71875 0.9375
vt 0.3125 0.9375
vt 0.3125 0.8125
vt 0.71875 0.8125
vt 0.71875 0.9375
vt 0.25 0.65625
vt 0.28125 0.6875
vt 0.25 0.6875
vt 0.25 0.65625
vt 0.28125 0.6875
vt 0.25 0.6875
vt 0.25 0.6875
vt 0.28125 0.6875
vt 0.25 0.65625
vt 0.25 0.6875
vt 0.28125 0.6875
vt 0.25 0.65625
vt 0.25 0.65625
vt 0.28125 0.6875
vt 0.25 0.6875
vt 0.25 0.6875
vt 0.28125 0.6875
vt 0.25 0.65625
vt 0.25 0.65625
vt 0.28125 0.6875
vt 0.25 0.6875
vn -0.42603032181928224 0 0.9047088840563902
vn 0 9.625858526325308e-18 1
vn -0.21332677231310782 0.3659339477753946 0.9058609352875232
vn 0 9.625858526325308e-18 1
vn 0.21332677231310782 0.36593394777539456 0.9058609352875232
vn -0.21332677231310782 0.3659339477753946 0.9058609352875232
vn 0 9.625858526325308e-18 1
vn 0.4260303218192824 0 0.90470888405639
vn 0.21332677231310782 0.36593394777539456 0.9058609352875232
vn 0.21332677231310782 -0.3659339477753945 0.9058609352875232
vn 0.4260303218192824 0 0.90470888405639
vn 0 9.625858526325308e-18 1
vn -0.21332677231310782 -0.3659339477753945 0.9058609352875232
vn 0 9.625858526325308e-18 1
vn -0.42603032181928224 0 0.9047088840563902
vn -0.21332677231310782 0.3659339477753946 0.9058609352875232
vn 0.21332677231310782 0.36593394777539456 0.9058609352875232
vn 0 0.7267159254445161 0.6869381076234747
vn -0.21332677231310782 0.3659339477753946 0.9058609352875232
vn -0.7258270429731047 0.4197448504806365 0.5449673056100768
vn -0.42603032181928224 0 0.9047088840563902
vn 0.21332677231310782 -0.3659339477753945 0.9058609352875232
vn -0.21332677231310782 -0.3659339477753945 0.9058609352875232
vn 0 -0.7267159254445161 0.6869381076234747
vn -0.7258270429731047 -0.4197448504806365 0.5449673056100768
vn -0.21332677231310782 -0.3659339477753945 0.9058609352875232
vn -0.42603032181928224 0 0.9047088840563902
vn 0 0.7267159254445161 0.6869381076234747
vn -0.7258270429731047 0.4197448504806365 0.5449673056100768
vn -0.21332677231310782 0.3659339477753946 0.9058609352875232
vn 0.21332677231310782 0.36593394777539456 0.9058609352875232
vn 0.7258270429731049 0.4197448504806365 0.5449673056100768
vn 0 0.7267159254445161 0.6869381076234747
vn 0 -0.7267159254445161 0.6869381076234747
vn 0.725827042973105 -0.4197448504806365 0.5449673056100767
vn 0.21332677231310782 -0.3659339477753945 0.9058609352875232
vn -0.21332677231310782 -0.3659339477753945 0.9058609352875232
vn -0.7258270429731047 -0.4197448504806365 0.5449673056100768
vn 0 -0.7267159254445161 0.6869381076234747
vn -0.7258270429731047 -0.4197448504806365 0.5449673056100768
vn -0.42603032181928224 0 0.9047088840563902
vn -0.7258270429731047 0.4197448504806365 0.5449673056100768
vn 0.7258270429731049 0.4197448504806365 0.5449673056100768
vn 0.4260303218192824 0 0.90470888405639
vn 0.725827042973105 -0.4197448504806365 0.5449673056100767
vn -0.7258270429731047 0.4197448504806365 0.5449673056100768
vn 0 0.7267159254445161 0.6869381076234747
vn -0.7071067811865476 0.7071067811865476 0
vn -0.7071067811865476 -0.7071067811865476 0
vn 0 -0.7267159254445161 0.6869381076234747
vn -0.7258270429731047 -0.4197448504806365 0.5449673056100768
vn 0.7071067811865476 0.7071067811865476 0
vn 0 0.7267159254445161 0.6869381076234747
vn 0.7258270429731049 0.4197448504806365 0.5449673056100768
vn 0.725827042973105 -0.4197448504806365 0.5449673056100767
vn 0 -0.7267159254445161 0.6869381076234747
vn 0.7071067811865476 -0.7071067811865476 0
vn 0.725827042973105 -0.4197448504806365 0.5449673056100767
vn 0.9887679192213534 0 -0.14945903090370571
vn 0.7258270429731049 0.4197448504806365 0.5449673056100768
vn -0.7258270429731047 0.4197448504806365 0.5449673056100768
vn -0.9887679192213534 0 -0.14945903090370571
vn -0.7258270429731047 -0.4197448504806365 0.5449673056100768
vn -0.9887679192213534 0 -0.14945903090370571
vn -0.7258270429731047 0.4197448504806365 0.5449673056100768
vn -0.7071067811865476 0.7071067811865476 0
vn 0.7071067811865476 0.7071067811865476 0
vn 0.7258270429731049 0.4197448504806365 0.5449673056100768
vn 0.9887679192213534 0 -0.14945903090370571
vn -0.4962081904850365 -0.00032176012994045535 -0.8682035061930957
vn -0.35599195405140266 0.2710633500866507 -0.8943122435092039
vn -0.2978565046645534 0.536666574674744 -0.7894748192665123
vn -0.35599195405140266 0.2710633500866507 -0.8943122435092039
vn -0.00005110705896789712 0.8944629764292858 -0.4471420145606222
vn -0.2978565046645534 0.536666574674744 -0.7894748192665123
vn 0.4260303218192824 0 0.90470888405639
vn 0.7258270429731049 0.4197448504806365 0.5449673056100768
vn 0.21332677231310782 0.36593394777539456 0.9058609352875232
vn -0.21332677231310782 -0.3659339477753945 0.9058609352875232
vn 0.21332677231310782 -0.3659339477753945 0.9058609352875232
vn 0 9.625858526325308e-18 1
vn 0.6315853227566278 0.3852868813734384 0.672795659260623
vn 0.48433969530480536 0.8527741801982548 -0.1954258353934874
vn 0.1937482757848914 0.7336321443861534 0.6513412948322529
vn 0.6315853227566278 0.3852868813734384 0.672795659260623
vn 0.944203605515075 0.27772227756782336 -0.1770589954644319
vn 0.48433969530480536 0.8527741801982548 -0.1954258353934874
vn 0.1937482757848914 0.7336321443861534 0.6513412948322529
vn -0.22809827746941758 0.9445677135459365 -0.23614192838648201
vn -0.43314991671215397 0.7747703358816725 0.46055626832131435
vn 0.1937482757848914 0.7336321443861534 0.6513412948322529
vn 0.48433969530480536 0.8527741801982548 -0.1954258353934874
vn -0.22809827746941758 0.9445677135459365 -0.23614192838648201
vn 0.44397723926167426 -0.7363001298627566 0.5106332634892382
vn 0.8663187266214164 -0.48070857630672503 -0.13568761391596934
vn 0.8491116746287052 -0.21039552272214276 0.4845029288123159
vn 0.44397723926167426 -0.7363001298627566 0.5106332634892382
vn 0.2614657192733803 -0.9555118858977933 -0.13650169798539574
vn 0.8663187266214164 -0.48070857630672503 -0.13568761391596934
vn 0.8491116746287052 -0.21039552272214276 0.4845029288123159
vn 0.944203605515075 0.27772227756782336 -0.1770589954644319
vn 0.6315853227566278 0.3852868813734384 0.672795659260623
vn 0.8491116746287052 -0.21039552272214276 0.4845029288123159
vn 0.8663187266214164 -0.48070857630672503 -0.13568761391596934
vn 0.944203605515075 0.27772227756782336 -0.1770589954644319
vn -0.43314991671215397 0.7747703358816725 0.46055626832131435
vn -0.8277479341454612 0.5296256388145767 -0.18528367501799128
vn -0.8465442140290385 0.23787308908662547 0.47621348908062655
vn -0.43314991671215397 0.7747703358816725 0.46055626832131435
vn -0.22809827746941758 0.9445677135459365 -0.23614192838648201
vn -0.8277479341454612 0.5296256388145767 -0.18528367501799128
vn -0.8465442140290385 0.23787308908662547 0.47621348908062655
vn -0.9599952878856189 -0.22126082009464831 -0.1716178799788972
vn -0.6341664938519952 -0.35988043870162145 0.6843383139320756
vn -0.8465442140290385 0.23787308908662547 0.47621348908062655
vn -0.8277479341454612 0.5296256388145767 -0.18528367501799128
vn -0.9599952878856189 -0.22126082009464831 -0.1716178799788972
vn -0.6341664938519952 -0.35988043870162145 0.6843383139320756
vn -0.514491064491855 -0.8475163994267739 -0.130441163980988
vn -0.184484317670487 -0.7036692082956539 0.6861597349234523
vn -0.6341664938519952 -0.35988043870162145 0.6843383139320756
vn -0.9599952878856189 -0.22126082009464831 -0.1716178799788972
vn -0.514491064491855 -0.8475163994267739 -0.130441163980988
vn -0.184484317670487 -0.7036692082956539 0.6861597349234523
vn 0.2614657192733803 -0.9555118858977933 -0.13650169798539574
vn 0.44397723926167426 -0.7363001298627566 0.5106332634892382
vn -0.184484317670487 -0.7036692082956539 0.6861597349234523
vn -0.514491064491855 -0.8475163994267739 -0.130441163980988
vn 0.2614657192733803 -0.9555118858977933 -0.13650169798539574
vn -0.6341664938519952 -0.35988043870162145 0.6843383139320756
vn 0.6315853227566278 0.3852868813734384 0.672795659260623
vn -0.8465442140290385 0.23787308908662547 0.47621348908062655
vn -0.6341664938519952 -0.35988043870162145 0.6843383139320756
vn 0.8491116746287052 -0.21039552272214276 0.4845029288123159
vn 0.6315853227566278 0.3852868813734384 0.672795659260623
vn -0.8465442140290385 0.23787308908662547 0.47621348908062655
vn 1.134894647394641e-15 -1.0658141036401422e-14 1
vn -0.43314991671215397 0.7747703358816725 0.46055626832131435
vn 0.1937482757848914 0.7336321443861534 0.6513412948322529
vn -5.033011044967341e-15 -1.1842378929334923e-14 1
vn 0.6315853227566278 0.3852868813734384 0.672795659260623
vn -0.184484317670487 -0.7036692082956539 0.6861597349234523
vn -1.233581138472473e-15 1.381610875089104e-14 1
vn 7.697546304067737e-15 1.8947806286936285e-14 1
vn -0.184484317670487 -0.7036692082956539 0.6861597349234523
vn 0.44397723926167426 -0.7363001298627566 0.5106332634892382
vn -1.233581138472473e-15 1.381610875089104e-14 1
vn 1.134894647394641e-15 -1.0658141036401422e-14 1
vn 0.1937482757848914 0.7336321443861534 0.6513412948322529
vn -0.43314991671215397 0.7747703358816725 0.46055626832131435
vn 1.134894647394641e-15 -1.0658141036401422e-14 1
vn -5.033011044967341e-15 -1.1842378929334923e-14 1
vn 0.1937482757848914 0.7336321443861534 0.6513412948322529
vn 0.21332677231310782 -0.3659339477753945 0.9058609352875232
vn 0.725827042973105 -0.4197448504806365 0.5449673056100767
vn 0.4260303218192824 0 0.90470888405639
vn 0.44397723926167426 -0.7363001298627566 0.5106332634892382
vn 0.8491116746287052 -0.21039552272214276 0.4845029288123159
vn -1.233581138472473e-15 1.381610875089104e-14 1
vn 7.697546304067737e-15 1.8947806286936285e-14 1
vn -0.6341664938519952 -0.35988043870162145 0.6843383139320756
vn -0.184484317670487 -0.7036692082956539 0.6861597349234523
vn -0.49606960642386944 0.0003216658414476869 0.8682826971174504
vn -0.44866393560590645 -0.808546803905521 0.3807265932145875
vn -0.44866393560590645 -0.808546803905521 0.3807265932145875
vn -0.44866393560590645 -0.808546803905521 0.3807265932145875
vn -0.00005110486937784007 -0.8943913327643445 -0.4472853018648301
vn -0.44866393560590645 -0.808546803905521 0.3807265932145875
vn 0.9887679192213534 0 -0.14945903090370571
vn 0.725827042973105 -0.4197448504806365 0.5449673056100767
vn 0.7071067811865476 -0.7071067811865476 0
vn -0.7071067811865476 -0.7071067811865476 0
vn -0.7258270429731047 -0.4197448504806365 0.5449673056100768
vn -0.9887679192213534 0 -0.14945903090370571
vn -1.1925130176301365e-7 0.184288537512425 0.9828721864726448
vn -1.192513016538922e-7 0.18428853751242494 0.9828721864726448
vn -1.192513016538922e-7 0.18428853751242494 0.9828721864726448
vn -1.192513016538922e-7 0.18428853751242494 0.9828721864726448
vn -1.1925130154477074e-7 0.18428853751242488 0.9828721864726447
vn -1.192513016538922e-7 0.18428853751242494 0.9828721864726448
vn 0.16439899110926276 2.677083382724857e-7 0.9863939231981231
vn 0.1643989896621918 2.4093750449273493e-7 0.9863939234393087
vn 0.1643989896621918 2.4093750449273493e-7 0.9863939234393087
vn 0.1643989896621918 2.4093750449273493e-7 0.9863939234393087
vn 0.16439898821512067 2.1416667071298393e-7 0.9863939236804933
vn 0.1643989896621918 2.4093750449273493e-7 0.9863939234393087
vn -0.1643989896621918 2.4093750449273493e-7 0.9863939234393087
vn -0.1643989896621918 2.4093750449273493e-7 0.9863939234393087
vn -0.16439899110926276 2.677083382724857e-7 0.9863939231981231
vn -0.1643989896621918 2.4093750449273493e-7 0.9863939234393087
vn -0.16439898821512067 2.1416667071298393e-7 0.9863939236804933
vn -0.1643989896621918 2.4093750449273493e-7 0.9863939234393087
vn -3.182431236507426e-9 0.09938293819728936 -0.9950492608887632
vn 0.38391400966860667 -0.22394983576710273 -0.8957993660636633
vn -0.35599195405140266 0.2710633500866507 -0.8943122435092039
vn -3.182431236507426e-9 0.09938293819728936 -0.9950492608887632
vn -0.35599195405140266 0.2710633500866507 -0.8943122435092039
vn 0.38391400966860667 -0.22394983576710273 -0.8957993660636633
vn -0.1968722158976684 0.3441745356416406 -0.9180333434159146
vn 0.19687221992587972 0.34417452255673964 -0.918033347457649
vn -3.182431236507426e-9 0.09938293819728936 -0.9950492608887632
vn -0.1968722158976684 0.3441745356416406 -0.9180333434159146
vn -3.182431236507426e-9 0.09938293819728936 -0.9950492608887632
vn -0.3939193113309223 -1.1767240878912315e-8 -0.9191450245530199
vn -0.3939193113309223 -1.1767240878912315e-8 -0.9191450245530199
vn -3.182431236507426e-9 0.09938293819728936 -0.9950492608887632
vn -0.35599195405140266 0.2710633500866507 -0.8943122435092039
vn 0.38391400966860667 -0.22394983576710273 -0.8957993660636633
vn -3.182431236507426e-9 0.09938293819728936 -0.9950492608887632
vn 0.39391930141289033 -1.3797009801900493e-8 -0.9191450288036052
vn 0.39391930141289033 -1.3797009801900493e-8 -0.9191450288036052
vn -3.182431236507426e-9 0.09938293819728936 -0.9950492608887632
vn 0.19687221992587972 0.34417452255673964 -0.918033347457649
g Scene
usemtl material0
f 1/1/1 3/2/2 2/3/3
f 3/4/4 4/5/5 2/6/6
f 3/7/7 5/8/8 4/9/9
f 6/10/10 5/11/11 3/12/12
f 7/13/13 3/14/14 1/15/15
f 2/16/16 4/17/17 8/18/18
f 2/19/19 9/20/20 1/21/21
f 6/22/22 7/23/23 10/24/24
f 11/25/25 7/26/26 1/27/27
f 8/28/28 9/29/29 2/30/30
f 4/31/31 12/32/32 8/33/33
f 10/34/34 13/35/35 6/36/36
f 7/37/37 11/38/38 10/39/39
f 11/40/40 1/41/41 9/42/42
f 12/43/43 5/44/44 13/45/45
f 9/46/46 8/47/47 14/48/48
f 15/49/49 10/50/50 11/51/51
f 16/52/52 8/53/53 12/54/54
f 13/55/55 10/56/56 17/57/57
f 13/58/58 18/59/59 12/60/60
f 9/61/61 19/62/62 11/63/63
f 19/64/64 9/65/65 14/66/66
f 16/67/67 12/68/68 18/69/69
f 21/70/70 22/71/71 20/72/72
f 22/73/73 23/74/74 20/75/75
f 5/76/76 12/77/77 4/78/78
f 7/79/79 6/80/80 3/81/81
f 24/82/82 26/83/83 25/84/84
f 24/85/85 27/86/86 26/87/87
f 25/88/88 29/89/89 28/90/90
f 25/91/91 26/92/92 29/93/93
f 30/94/94 32/95/95 31/96/96
f 30/97/97 33/98/98 32/99/99
f 31/100/100 27/101/101 24/102/102
f 31/103/103 32/104/104 27/105/105
f 28/106/106 35/107/107 34/108/108
f 28/109/109 29/110/110 35/111/111
f 34/112/112 37/113/113 36/114/114
f 34/115/115 35/116/116 37/117/117
f 36/118/118 39/119/119 38/120/120
f 36/121/121 37/122/122 39/123/123
f 38/124/124 33/125/125 30/126/126
f 38/127/127 39/128/128 33/129/129
f 36/130/130 24/131/131 34/132/132
f 36/133/133 31/134/134 24/135/135
f 34/136/136 40/137/137 28/138/138
f 25/139/139 41/140/140 24/141/141
f 38/142/142 43/143/143 42/144/144
f 38/145/145 30/146/146 43/147/147
f 40/148/148 25/149/149 28/150/150
f 40/151/151 41/152/152 25/153/153
f 6/154/154 13/155/155 5/156/156
f 30/157/157 31/158/158 43/159/159
f 42/160/160 36/161/161 38/162/162
f 45/163/163 46/164/164 44/165/165
f 46/166/166 47/167/167 44/168/168
f 18/169/169 13/170/170 17/171/171
f 15/172/172 11/173/173 19/174/174
f 49/175/175 50/176/176 48/177/177
f 50/178/178 51/179/179 48/180/180
f 53/181/181 54/182/182 52/183/183
f 54/184/184 55/185/185 52/186/186
f 56/187/187 58/188/188 57/189/189
f 56/190/190 59/191/191 58/192/192
f 60/193/193 61/194/194 22/195/195
f 60/196/196 22/197/197 61/198/198
f 62/199/199 63/200/200 60/201/201
f 62/202/202 60/203/203 64/204/204
f 64/205/205 60/206/206 22/207/207
f 61/208/208 60/209/209 65/210/210
f 65/211/211 60/212/212 63/213/213
